<svg width="112" height="25" fill="none" xmlns="http://www.w3.org/2000/svg"><path d="M31.277 18H28.29V3.605h2.988V18zm8.487-10.898c1.1 0 1.998.29 2.695.869.703.573 1.055 1.526 1.055 2.861V18h-2.852v-6.475c0-.56-.075-.99-.224-1.289-.274-.547-.795-.82-1.563-.82-.944 0-1.592.4-1.943 1.201-.183.423-.274.964-.274 1.621V18h-2.773V7.375h2.685v1.553c.358-.547.697-.941 1.016-1.182.573-.43 1.299-.644 2.178-.644zm8.496 7.5c.058.494.185.846.38 1.054.346.371.984.557 1.915.557.547 0 .98-.082 1.298-.244.326-.163.489-.407.489-.733a.79.79 0 00-.39-.713c-.261-.162-1.228-.442-2.901-.84-1.205-.299-2.054-.673-2.549-1.123-.495-.442-.742-1.08-.742-1.914 0-.983.384-1.826 1.152-2.529.775-.71 1.862-1.064 3.262-1.064 1.328 0 2.409.267 3.242.8.84.528 1.322 1.443 1.445 2.745h-2.783c-.039-.358-.14-.642-.303-.85-.306-.378-.826-.566-1.562-.566-.606 0-1.038.094-1.299.283-.254.189-.38.41-.38.664 0 .319.136.55.41.693.273.15 1.24.407 2.9.772 1.106.26 1.937.654 2.49 1.181.547.534.82 1.202.82 2.002 0 1.055-.394 1.918-1.181 2.588-.782.664-1.992.996-3.633.996-1.673 0-2.91-.351-3.711-1.054-.794-.71-1.191-1.612-1.191-2.705h2.822zm7.87-5.166V7.453h1.485V4.484h2.754v2.97h1.729v1.982h-1.729v5.624c0 .437.056.71.166.82.11.105.45.157 1.016.157h.264l.283-.02v2.08l-1.319.05c-1.315.045-2.213-.183-2.695-.684-.313-.32-.469-.81-.469-1.475V9.436h-1.484zm13.624 3.388c-.176.11-.355.202-.537.274a4.7 4.7 0 01-.733.185l-.625.117c-.586.105-1.005.232-1.26.381-.43.254-.644.648-.644 1.182 0 .475.13.82.39 1.035.268.208.59.313.968.313.599 0 1.149-.176 1.65-.528.508-.351.771-.993.79-1.924v-1.035zm-1.69-1.299c.515-.065.883-.146 1.104-.244.397-.169.596-.433.596-.79 0-.437-.153-.736-.46-.9-.299-.168-.742-.253-1.327-.253-.658 0-1.124.163-1.397.488-.195.241-.325.567-.39.977h-2.686c.059-.931.319-1.696.781-2.295.736-.938 1.999-1.406 3.79-1.406 1.165 0 2.2.23 3.105.693.905.462 1.357 1.335 1.357 2.617v4.883c0 .338.007.749.02 1.23.02.365.075.612.166.743.09.13.228.237.41.322V18h-3.027a3.092 3.092 0 01-.176-.605 7.269 7.269 0 01-.078-.645 5.72 5.72 0 01-1.329 1.064c-.599.346-1.276.518-2.03.518-.964 0-1.762-.273-2.393-.82-.625-.554-.938-1.335-.938-2.344 0-1.309.505-2.256 1.514-2.842.553-.319 1.367-.547 2.441-.683l.947-.118zM80.8 7.102a.67.67 0 01.127.01c.039 0 .12.003.244.01v2.85a7.544 7.544 0 00-.8-.048c-1.12 0-1.873.364-2.257 1.094-.215.41-.322 1.041-.322 1.894V18h-2.803V7.355h2.656v1.856c.43-.71.805-1.195 1.124-1.455.52-.436 1.198-.654 2.03-.654zm6.21 2.265c-.644 0-1.145.202-1.503.606-.352.403-.573.95-.664 1.64h4.326c-.046-.735-.27-1.292-.674-1.67-.397-.384-.892-.576-1.484-.576zm0-2.295c.886 0 1.684.166 2.393.498.71.332 1.296.856 1.758 1.573.417.631.687 1.364.81 2.197.072.488.102 1.191.089 2.11h-7.286c.04 1.067.375 1.816 1.006 2.245.384.267.847.4 1.387.4.573 0 1.038-.162 1.397-.488a2.32 2.32 0 00.517-.732h2.842c-.072.632-.4 1.273-.986 1.924-.912 1.035-2.188 1.553-3.829 1.553a5.398 5.398 0 01-3.584-1.309c-1.035-.872-1.552-2.292-1.552-4.258 0-1.842.465-3.255 1.396-4.238.938-.983 2.152-1.475 3.643-1.475zm12.833.03c1.1 0 1.998.29 2.695.869.703.573 1.055 1.526 1.055 2.861V18h-2.852v-6.475c0-.56-.075-.99-.224-1.289-.274-.547-.795-.82-1.563-.82-.944 0-1.592.4-1.943 1.201-.183.423-.274.964-.274 1.621V18h-2.773V7.375h2.685v1.553c.359-.547.697-.941 1.016-1.182.573-.43 1.299-.644 2.178-.644zm5.234 2.334V7.453h1.485V4.484h2.753v2.97h1.729v1.982h-1.729v5.624c0 .437.056.71.166.82.111.105.45.157 1.016.157h.264l.283-.02v2.08l-1.318.05c-1.315.045-2.214-.183-2.696-.684-.312-.32-.468-.81-.468-1.475V9.436h-1.485z" fill="#2B2C2D"/><path fill-rule="evenodd" clip-rule="evenodd" d="M10 22c5.523 0 10-4.477 10-10S15.523 2 10 2 0 6.477 0 12s4.477 10 10 10zm2.684-11.376h-2.157l.45-3.035c.077-.524-.607-.793-.907-.357l-3.53 5.12a.5.5 0 00.412.784h2.157L8.66 16.17c-.077.524.606.793.906.357l3.53-5.12a.5.5 0 00-.412-.784z" fill="url(#instarent_with_text_3411c4f2__paint0_linear)"/><defs><linearGradient id="instarent_with_text_3411c4f2__paint0_linear" x1="0" y1="2" x2="21.986" y2="13.168" gradientUnits="userSpaceOnUse"><stop offset=".198" stop-color="#3879F9"/><stop offset="1" stop-color="#B659FF"/></linearGradient></defs></svg>