<svg width="127" height="125" viewBox="0 0 135 127" fill="none" xmlns="http://www.w3.org/2000/svg"><g filter="url(#PostListings_f10221ac__filter0_d)"><path d="M126 0H9a5 5 0 00-5 5v108.692a5 5 0 005 5h117a5 5 0 005-5V5a5 5 0 00-5-5z" fill="#fff"/><path d="M76.105 46.29H60.08a1.484 1.484 0 000 2.967h16.024a1.484 1.484 0 000-2.968zM101.065 53.91H60.034a1.436 1.436 0 000 2.872h41.031a1.436 1.436 0 000-2.873z" fill="#A6C4F7"/><path d="M80.018 61.53H60.022a1.424 1.424 0 000 2.848h19.996a1.424 1.424 0 000-2.848z" fill="#4D8AF0"/><path d="M76.105 81.897H60.08a1.484 1.484 0 000 2.968h16.024a1.484 1.484 0 100-2.968zM101.065 89.517H60.034a1.436 1.436 0 000 2.873h41.031a1.436 1.436 0 000-2.873z" fill="#A6C4F7"/><path d="M80.018 97.137H60.022a1.424 1.424 0 000 2.848h19.996a1.424 1.424 0 000-2.848z" fill="#4D8AF0"/><path d="M49.477 43.916h-30.42a2 2 0 00-2 2v18.552a2 2 0 002 2h30.42a2 2 0 002-2V45.916a2 2 0 00-2-2zM49.477 79.523h-30.42a2 2 0 00-2 2v18.552a2 2 0 002 2h30.42a2 2 0 002-2V81.523a2 2 0 00-2-2z" fill="#A6C4F7"/></g><rect x="15.869" y="11.869" width="102.075" height="21.364" rx="5" fill="#4D8AF0"/><path fill-rule="evenodd" clip-rule="evenodd" d="M29.299 21.365a2.748 2.748 0 11-5.496 0 2.748 2.748 0 015.496 0zm-.794 4.328a4.748 4.748 0 111.623-1.206l1.877 1.878a1 1 0 01-1.414 1.414l-2.086-2.086z" fill="#fff"/><defs><filter id="PostListings_f10221ac__filter0_d" x="0" y="0" width="135" height="126.692" filterUnits="userSpaceOnUse" color-interpolation-filters="sRGB"><feFlood flood-opacity="0" result="BackgroundImageFix"/><feColorMatrix in="SourceAlpha" values="0 0 0 0 0 0 0 0 0 0 0 0 0 0 0 0 0 0 127 0"/><feOffset dy="4"/><feGaussianBlur stdDeviation="2"/><feColorMatrix values="0 0 0 0 0 0 0 0 0 0 0 0 0 0 0 0 0 0 0.25 0"/><feBlend in2="BackgroundImageFix" result="effect1_dropShadow"/><feBlend in="SourceGraphic" in2="effect1_dropShadow" result="shape"/></filter></defs></svg>